<?xml version="1.0" encoding="UTF-8" standalone="no"?>
<!-- Created with Inkscape (http://www.inkscape.org/) -->

<svg
   xmlns:dc="http://purl.org/dc/elements/1.1/"
   xmlns:cc="http://creativecommons.org/ns#"
   xmlns:rdf="http://www.w3.org/1999/02/22-rdf-syntax-ns#"
   xmlns:svg="http://www.w3.org/2000/svg"
   xmlns="http://www.w3.org/2000/svg"
   xmlns:sodipodi="http://sodipodi.sourceforge.net/DTD/sodipodi-0.dtd"
   xmlns:inkscape="http://www.inkscape.org/namespaces/inkscape"
   width="43.653866mm"
   height="93.312798mm"
   viewBox="0 0 154.67905 330.6359"
   id="svg2"
   version="1.1"
   inkscape:version="0.91 r13725"
   sodipodi:docname="pencil.svg">
  <defs
     id="defs4" />
  <sodipodi:namedview
     id="base"
     pagecolor="#ffffff"
     bordercolor="#666666"
     borderopacity="1.0"
     inkscape:pageopacity="0.0"
     inkscape:pageshadow="2"
     inkscape:zoom="0.98994949"
     inkscape:cx="160.33595"
     inkscape:cy="108.11257"
     inkscape:document-units="px"
     inkscape:current-layer="layer1"
     showgrid="false"
     fit-margin-top="0"
     fit-margin-left="0"
     fit-margin-right="0"
     fit-margin-bottom="0"
     inkscape:window-width="1366"
     inkscape:window-height="714"
     inkscape:window-x="0"
     inkscape:window-y="27"
     inkscape:window-maximized="1" />
  <metadata
     id="metadata7">
    <rdf:RDF>
      <cc:Work
         rdf:about="">
        <dc:format>image/svg+xml</dc:format>
        <dc:type
           rdf:resource="http://purl.org/dc/dcmitype/StillImage" />
        <dc:title></dc:title>
      </cc:Work>
    </rdf:RDF>
  </metadata>
  <g
     inkscape:label="Calque 1"
     inkscape:groupmode="layer"
     id="layer1"
     transform="translate(-185.17416,-398.87017)">
    <g
       id="g4216">
      <path
         inkscape:connector-curvature="0"
         d="m 216.78571,478.35967 c 0.0383,-0.9614 0.17694,-1.91484 0.31021,-2.86657 0.35007,-2.39932 0.71916,-4.7959 1.08408,-7.19302 0.4255,-2.76668 0.84432,-5.53416 1.29964,-8.29614 0.0597,-0.37111 0.11938,-0.74222 0.17908,-1.11333 0.40107,-2.49333 3.92717,-1.92612 3.5261,0.56721 l 0,0 c -0.0604,0.37569 -0.12088,0.75139 -0.18132,1.12708 -0.453,2.7475 -0.86938,5.50051 -1.29275,8.25268 -0.36284,2.38343 -0.72978,4.76633 -1.07806,7.15192 -0.11079,0.7874 -0.2247,1.57667 -0.27555,2.37017 0,2.52538 -3.57143,2.52538 -3.57143,0 z"
         id="path4162"
         style="opacity:1;fill:#000000;fill-opacity:1;stroke:none;stroke-width:2;stroke-linecap:round;stroke-linejoin:round;stroke-miterlimit:4;stroke-dasharray:none;stroke-dashoffset:0;stroke-opacity:1" />
      <path
         inkscape:connector-curvature="0"
         d="m 229.32058,474.86238 c 0.0548,-0.37476 0.0665,-0.75446 0.093,-1.13189 0.11866,-1.571 0.26403,-3.13948 0.42509,-4.70666 0.24413,-2.37258 0.53095,-4.74017 0.82095,-7.10747 0.18028,-1.45531 0.0912,-0.73848 0.2672,-2.15049 0.31236,-2.50599 3.85636,-2.06425 3.544,0.44174 l 0,0 c -0.17547,1.40774 -0.0867,0.6934 -0.26627,2.14302 -0.28719,2.34433 -0.57146,4.68892 -0.81318,7.03848 -0.1573,1.52921 -0.29928,3.05969 -0.41521,4.59263 -0.0347,0.48993 -0.0521,0.98245 -0.13272,1.46778 -0.41517,2.49102 -3.938,1.90388 -3.52283,-0.58714 z"
         id="path4164"
         style="opacity:1;fill:#000000;fill-opacity:1;stroke:none;stroke-width:2;stroke-linecap:round;stroke-linejoin:round;stroke-miterlimit:4;stroke-dasharray:none;stroke-dashoffset:0;stroke-opacity:1" />
      <path
         inkscape:connector-curvature="0"
         d="m 242.87087,471.1638 c -0.11807,-0.7157 -0.15309,-1.43904 -0.17887,-2.16282 -0.049,-1.68034 0.005,-3.36166 0.0673,-5.04088 0.0743,-2.20303 0.23826,-4.40159 0.39467,-6.59992 0.0924,-1.26591 0.0465,-0.64528 0.13764,-1.86193 0.1887,-2.51832 3.75014,-2.25146 3.56144,0.26687 l 0,0 c -0.0905,1.20761 -0.0449,0.59144 -0.13666,1.84852 -0.15356,2.15818 -0.31514,4.31656 -0.38814,6.47934 -0.0595,1.59334 -0.11172,3.1887 -0.067,4.78313 0.0195,0.56885 0.0397,1.13787 0.13246,1.70055 0.41517,2.49103 -3.10767,3.07816 -3.52284,0.58714 z"
         id="path4166"
         style="opacity:1;fill:#000000;fill-opacity:1;stroke:none;stroke-width:2;stroke-linecap:round;stroke-linejoin:round;stroke-miterlimit:4;stroke-dasharray:none;stroke-dashoffset:0;stroke-opacity:1" />
      <path
         inkscape:connector-curvature="0"
         d="m 255,468.3491 c 0,-0.72972 0,-1.45945 0,-2.18917 0.0231,-1.58092 0.0655,-3.16133 0.12391,-4.74131 0.0698,-1.77502 0.1301,-3.55038 0.18607,-5.32588 0.0264,-1.23614 0.0289,-2.47262 0.0328,-3.70898 0.008,-2.52537 3.57928,-2.51424 3.57141,0.0111 l 0,0 c -0.004,1.27018 -0.007,2.54047 -0.0345,3.8104 -0.0562,1.78196 -0.11669,3.56378 -0.18673,5.34526 -0.0568,1.53603 -0.0979,3.07246 -0.12147,4.60939 0,0.72972 0,1.45945 0,2.18917 0,2.52538 -3.57143,2.52538 -3.57143,0 z"
         id="path4168"
         style="opacity:1;fill:#000000;fill-opacity:1;stroke:none;stroke-width:2;stroke-linecap:round;stroke-linejoin:round;stroke-miterlimit:4;stroke-dasharray:none;stroke-dashoffset:0;stroke-opacity:1" />
      <path
         inkscape:connector-curvature="0"
         d="m 264.64286,469.08452 c 0,-0.58227 0,-1.16454 0,-1.74681 -0.0128,-1.36831 0.013,-2.73609 0.0441,-4.10395 0.0385,-1.61092 0.0698,-3.22199 0.0988,-4.8331 0.0231,-1.3902 0.0718,-2.78069 0.16342,-4.16814 0.0145,-0.18264 0.029,-0.36528 0.0435,-0.54793 0.20064,-2.5174 3.76078,-2.23364 3.56014,0.28375 l 0,0 c -0.0134,0.1672 -0.0268,0.3344 -0.0401,0.50159 -0.0895,1.32972 -0.13283,2.66274 -0.1561,3.99513 -0.0292,1.61677 -0.0606,3.2335 -0.0992,4.85008 -0.0306,1.34074 -0.0561,2.68138 -0.0432,4.02257 0,0.58227 0,1.16454 0,1.74681 0,2.52538 -3.57143,2.52538 -3.57143,0 z"
         id="path4170"
         style="opacity:1;fill:#000000;fill-opacity:1;stroke:none;stroke-width:2;stroke-linecap:round;stroke-linejoin:round;stroke-miterlimit:4;stroke-dasharray:none;stroke-dashoffset:0;stroke-opacity:1" />
      <path
         inkscape:connector-curvature="0"
         d="m 275.00738,468.61221 c -0.0808,-0.63328 -0.10017,-1.27232 -0.10951,-1.90995 10e-4,-1.32794 0.0142,-2.65585 0.0229,-3.98375 -0.002,-1.63635 0.0256,-3.27205 0.0698,-4.90772 0.0198,-1.15097 0.0777,-2.3003 0.14567,-3.44924 0.14923,-2.52097 3.71442,-2.30993 3.56519,0.21104 l 0,0 c -0.0658,1.11083 -0.12205,2.22202 -0.14074,3.33484 -0.0436,1.61128 -0.0704,3.22257 -0.0686,4.83452 -0.009,1.30489 -0.0212,2.60978 -0.0232,3.9147 0.005,0.48411 0.02,0.96897 0.0739,1.45048 0.35714,2.5 -3.1784,3.00508 -3.53554,0.50508 z"
         id="path4172"
         style="opacity:1;fill:#000000;fill-opacity:1;stroke:none;stroke-width:2;stroke-linecap:round;stroke-linejoin:round;stroke-miterlimit:4;stroke-dasharray:none;stroke-dashoffset:0;stroke-opacity:1" />
      <path
         inkscape:connector-curvature="0"
         d="m 283.57143,467.65595 c -0.01,-0.49687 0.0218,-0.99284 0.0457,-1.48887 0.0831,-1.09288 0.14398,-2.18706 0.19547,-3.28183 0.10179,-1.51174 0.16455,-3.02484 0.2056,-4.53929 0.034,-1.4326 0.055,-2.86522 0.11685,-4.29695 0.0264,-0.58529 0.056,-1.17042 0.086,-1.75553 0.12905,-2.52208 3.69581,-2.33958 3.56676,0.1825 l 0,0 c -0.0295,0.57574 -0.0586,1.1515 -0.0846,1.72741 -0.0613,1.41256 -0.0806,2.82606 -0.11482,4.23948 -0.0418,1.53811 -0.10473,3.07495 -0.20824,4.6103 -0.0516,1.0963 -0.11106,2.19217 -0.19569,3.2865 -0.0212,0.43861 -0.0517,0.8769 -0.0416,1.31628 0,2.52538 -3.57143,2.52538 -3.57143,0 z"
         id="path4174"
         style="opacity:1;fill:#000000;fill-opacity:1;stroke:none;stroke-width:2;stroke-linecap:round;stroke-linejoin:round;stroke-miterlimit:4;stroke-dasharray:none;stroke-dashoffset:0;stroke-opacity:1" />
      <path
         inkscape:connector-curvature="0"
         d="m 292.51373,469.02095 c -0.14786,-0.71914 -0.17973,-1.45716 -0.21109,-2.18862 -0.0268,-1.76825 0.0904,-3.53566 0.21627,-5.29849 0.14708,-1.91821 0.29379,-3.83645 0.44159,-5.75461 0.0205,-0.26486 0.041,-0.52973 0.0616,-0.79459 0.19509,-2.51784 3.75585,-2.24194 3.56076,0.27589 l 0,0 c -0.0205,0.26436 -0.041,0.52872 -0.0615,0.79308 -0.1473,1.91163 -0.29347,3.82336 -0.44014,5.73505 -0.1168,1.62936 -0.22581,3.26268 -0.21018,4.89704 0.0227,0.58424 0.044,1.17429 0.16552,1.74811 0.41517,2.49102 -3.10767,3.07816 -3.52284,0.58714 z"
         id="path4176"
         style="opacity:1;fill:#000000;fill-opacity:1;stroke:none;stroke-width:2;stroke-linecap:round;stroke-linejoin:round;stroke-miterlimit:4;stroke-dasharray:none;stroke-dashoffset:0;stroke-opacity:1" />
      <path
         inkscape:connector-curvature="0"
         d="m 302.53486,471.29095 c 0.0614,-0.69077 0.10586,-1.38284 0.15472,-2.07462 0.11005,-1.77028 0.26498,-3.53696 0.42842,-5.30294 0.19532,-2.12454 0.48929,-4.23805 0.79121,-6.34952 0.15084,-1.02243 0.32088,-2.04156 0.49925,-3.05946 0.4364,-2.48739 3.9541,-1.87023 3.5177,0.61716 l 0,0 c -0.17229,0.98077 -0.33564,1.96286 -0.4815,2.94798 -0.29369,2.05278 -0.58024,4.1075 -0.77043,6.17298 -0.16106,1.74019 -0.31392,3.48106 -0.42211,5.22551 -0.0568,0.80384 -0.10094,1.60947 -0.19442,2.41005 -0.41517,2.49102 -3.93801,1.90388 -3.52284,-0.58714 z"
         id="path4178"
         style="opacity:1;fill:#000000;fill-opacity:1;stroke:none;stroke-width:2;stroke-linecap:round;stroke-linejoin:round;stroke-miterlimit:4;stroke-dasharray:none;stroke-dashoffset:0;stroke-opacity:1" />
      <path
         inkscape:connector-curvature="0"
         d="m 313.57465,475.35631 c -0.0372,-0.72832 -0.0248,-1.45925 -0.008,-2.18814 0.0187,-1.47988 0.12871,-2.95518 0.24378,-4.42994 0.15155,-1.95713 0.41321,-3.90316 0.6819,-5.84694 0.26969,-1.87821 0.5915,-3.74825 0.90034,-5.62026 0.12408,-0.76249 0.2515,-1.52443 0.37877,-2.2864 0.41606,-2.49087 3.93869,-1.90247 3.52262,0.5884 l 0,0 c -0.12688,0.75962 -0.25391,1.51921 -0.37759,2.27936 -0.3038,1.84136 -0.62047,3.68075 -0.88638,5.52812 -0.25918,1.87354 -0.51251,3.74917 -0.65906,5.63557 -0.11003,1.40984 -0.21693,2.82006 -0.23391,4.23485 -0.0131,0.54246 -0.007,1.15395 -0.0182,1.6624 0.31324,2.50588 -3.23061,2.94886 -3.54385,0.44298 z"
         id="path4180"
         style="opacity:1;fill:#000000;fill-opacity:1;stroke:none;stroke-width:2;stroke-linecap:round;stroke-linejoin:round;stroke-miterlimit:4;stroke-dasharray:none;stroke-dashoffset:0;stroke-opacity:1" />
      <path
         inkscape:connector-curvature="0"
         id="path4182"
         d="m 287.96168,445.66662 c -19.53636,0.29476 -38.91978,3.09361 -58.29067,5.40018 -3.91708,0.72521 -8.07945,0.68941 -11.82931,2.05797 -2.05204,2.21538 -2.3855,5.5347 -3.47912,8.2745 -2.65601,9.06902 -5.26383,18.20927 -6.91429,27.51303 0.19659,2.12858 2.69229,0.99306 3.80301,0.3404 17.9366,-8.51274 37.41479,-13.03397 57.07224,-15.27521 9.2436,-0.41989 18.55771,-0.73157 27.7348,0.49845 9.37012,1.58479 18.41252,4.82857 27.20607,8.45352 2.18088,0.40328 1.89862,-2.72002 2.53168,-4.0284 2.15977,-8.75984 4.8447,-17.40896 6.59081,-26.26039 -0.59953,-2.1451 -3.50437,-2.13935 -5.25252,-2.89836 -12.73327,-3.35317 -26.05448,-4.13526 -39.1727,-4.07569 z m -30.78892,5.70103 c 1.19224,0.56767 0.33046,2.62836 0.64523,3.7221 -0.15262,4.59896 0.35177,9.28357 -0.48968,13.78279 -1.11795,0.87429 -1.30902,-0.70165 -1.21094,-1.56808 0.0249,-5.22823 -0.18378,-10.50776 0.39342,-15.67592 0.19266,-0.13611 0.41661,-0.27362 0.66197,-0.26089 z m 28.89788,0.002 c 1.35727,0.52984 0.31827,2.65218 0.63406,3.73605 -0.25295,4.34392 0.0498,8.87149 -0.79868,13.14104 -0.86829,0.96785 -1.42303,-0.83397 -1.17886,-1.45229 0.0479,-5.0555 8.1e-4,-10.16631 0.71918,-15.1709 0.18316,-0.12754 0.39292,-0.25767 0.6243,-0.2539 z m -19.31223,1.50321 c 1.26521,0.14289 0.31295,2.27077 0.67453,3.10058 -0.0986,4.5304 0.28711,9.12519 -0.38504,13.57841 -0.64961,1.12254 -1.64591,-0.4074 -1.17891,-1.26591 0.16218,-5.02228 -0.62658,-10.17104 0.3558,-15.12779 0.0534,-0.26077 0.30537,-0.314 0.53362,-0.28529 z m 10.26368,0.64243 c 1.22982,0.47045 0.32677,2.47015 0.62852,3.46261 -0.1424,4.01253 0.0899,8.22616 -0.54551,12.11775 -1.6029,0.48045 -0.87704,-1.96053 -1.137,-2.80762 0.10054,-4.16924 -0.29902,-8.40648 0.39969,-12.49232 0.16329,-0.18172 0.40621,-0.3035 0.6543,-0.28042 z m 29.19015,0.286 c 1.61266,0.52078 0.20361,2.70943 0.37597,3.83719 -0.8626,4.81069 -0.67422,9.82433 -1.75641,14.56055 -1.24401,0.94572 -1.08077,-1.29174 -1.02888,-2.06683 0.16615,-5.30342 0.43115,-10.77228 1.79199,-15.94378 0.13366,-0.20702 0.35229,-0.41089 0.61733,-0.38713 z m -11.35603,0.40388 c 1.28402,-0.0414 0.50531,1.99717 0.63965,2.70856 -0.40027,4.14626 -0.2755,8.55187 -0.67592,12.55511 -1.85845,0.63044 -1.44463,-2.19008 -1.5258,-3.20661 0.28864,-3.97738 -0.10692,-8.18102 1.12052,-11.99359 0.13295,-0.068 0.29657,-0.0542 0.44155,-0.0635 z m 23.08175,0.14927 c 0.88231,0.60144 0.0691,2.1492 0.14509,3.03641 -1.12421,5.88711 -1.62784,11.86086 -2.01241,17.82645 0.14324,0.97793 -1.78424,0.97329 -1.35045,-0.11439 -0.18698,-6.78987 0.79075,-13.80154 2.12821,-20.4004 0.3357,-0.16233 0.71108,-0.35924 1.08956,-0.34807 z m -72.77273,0.24275 c 1.70752,0.88769 0.16142,3.11031 0.51897,4.54799 -0.30779,4.1177 -0.13396,8.50431 -0.53153,12.4714 -1.75459,0.57338 -1.4922,-2.131 -1.54574,-3.07817 0.10579,-4.5121 0.0108,-9.13031 0.95422,-13.52898 0.17684,-0.16355 0.37398,-0.33143 0.60408,-0.41224 z m -23.76047,3.58817 c 1.39923,0.0622 0.36509,2.18323 0.53426,2.96254 -0.98148,5.9623 -1.57204,12.02687 -2.91707,17.90799 -1.92396,0.58535 -0.91959,-2.34903 -0.95215,-3.29101 0.86668,-5.77033 1.38264,-11.66501 2.85505,-17.3026 0.0982,-0.17497 0.27383,-0.29786 0.47991,-0.27692 z m 11.57645,1.01911 c 0.86093,0.40454 0.1534,2.15158 0.28867,3.01648 -0.52325,4.49393 -0.6171,9.20683 -1.66144,13.52509 -0.77516,0.875 -1.56577,-0.61969 -1.19349,-1.36649 0.34713,-4.98665 0.70652,-10.27636 1.73828,-15.12904 0.26958,-0.07 0.55302,-0.0464 0.82798,-0.046 z"
         style="opacity:1;fill:#babdb6;fill-opacity:1;stroke:none;stroke-width:2;stroke-linecap:round;stroke-linejoin:round;stroke-miterlimit:4;stroke-dasharray:none;stroke-dashoffset:0;stroke-opacity:1" />
      <path
         inkscape:connector-curvature="0"
         id="path4200"
         d="m 230.45166,450.83562 c -4.23335,0.68142 -8.55105,1.03739 -12.71632,2.02499 -1.10465,0.64612 -1.11588,2.20058 -1.70553,3.26133 -2.46549,6.35719 -3.92598,13.04234 -5.75048,19.59849 -1.16784,4.55674 -2.31107,9.14447 -3.06951,13.78183 0.0553,1.21845 1.58158,1.32104 2.35335,0.66886 6.15908,-2.94912 12.52972,-5.52921 18.91409,-7.78625 1.34423,-0.84842 0.1657,-2.39792 -0.0625,-3.53169 -1.93045,-5.27521 -2.21128,-11.28804 -0.59722,-16.75013 0.93069,-3.44496 2.50591,-6.7673 4.28903,-9.86074 0.44618,-1.01881 -0.75012,-1.78805 -1.65491,-1.40669 z"
         style="opacity:0.5;fill:#888a85;fill-opacity:1;stroke:none;stroke-width:2;stroke-linecap:round;stroke-linejoin:round;stroke-miterlimit:4;stroke-dasharray:none;stroke-dashoffset:0;stroke-opacity:1" />
      <path
         inkscape:connector-curvature="0"
         id="path4184"
         d="m 281.21643,405.40574 c -11.98865,-0.33839 -23.83433,2.06881 -35.37459,5.08371 -5.17471,1.64637 -11.45175,3.36698 -13.75697,8.87695 -3.60199,8.6388 -6.97859,17.37734 -10.95494,25.85589 -0.26526,2.55484 2.90421,1.02656 4.34335,1.0318 18.26619,-2.23255 36.57952,-4.79527 54.95616,-5.63231 16.40127,-0.5302 33.12404,-0.10085 49.01522,4.19453 1.28787,0.51121 3.65482,1.6237 3.95229,-0.55454 0.52432,-7.95708 -0.0217,-15.98902 -0.96942,-23.89946 -0.20969,-3.10955 -2.1025,-5.92895 -5.05528,-7.04572 -9.29947,-3.79191 -19.21844,-5.90752 -29.1049,-7.51432 -5.65504,-0.63858 -11.37205,-0.3193 -17.05092,-0.39653 z"
         style="opacity:1;fill:#f46767;fill-opacity:1;stroke:none;stroke-width:2;stroke-linecap:round;stroke-linejoin:round;stroke-miterlimit:4;stroke-dasharray:none;stroke-dashoffset:0;stroke-opacity:1" />
      <path
         inkscape:connector-curvature="0"
         id="path4196"
         d="m 252.01381,408.77612 c -5.10862,1.17241 -10.26477,2.52205 -14.94354,4.94547 -2.55986,1.32469 -4.54714,3.62312 -5.45616,6.36278 -3.34135,8.51105 -6.77457,16.96288 -10.6515,25.24518 -0.31507,1.13695 0.97111,1.74268 1.89662,1.39056 3.66239,-0.56986 7.38785,-0.89374 11.01592,-1.5838 1.41072,-0.63944 0.35249,-2.29401 0.3701,-3.45561 -0.18904,-3.26463 -0.35995,-6.62695 0.30845,-9.81407 1.52717,-6.03194 4.74168,-11.68229 9.46834,-15.81657 2.62338,-2.25193 5.8547,-3.57268 8.80057,-5.31454 0.78105,-0.6728 0.26521,-2.05621 -0.8088,-1.9594 z"
         style="opacity:1;fill:#ef2929;fill-opacity:1;stroke:none;stroke-width:2;stroke-linecap:round;stroke-linejoin:round;stroke-miterlimit:4;stroke-dasharray:none;stroke-dashoffset:0;stroke-opacity:1" />
      <path
         inkscape:connector-curvature="0"
         id="path4186"
         d="m 277.32343,478.98066 c -11.32689,-0.23335 -22.46869,2.27173 -33.48494,4.6017 -12.89465,3.01022 -25.51521,7.55213 -37.04799,14.08831 -2.4594,1.78822 -1.57035,5.37363 -2.44965,7.93091 -3.62328,21.53228 -7.41168,43.05153 -10.21141,64.7092 -2.36087,20.94629 -2.53554,42.05195 -2.69226,63.10552 0.2247,2.33923 -0.30354,4.84477 0.45377,7.06826 2.03725,0.91877 2.67841,-2.09785 3.88881,-3.25265 6.35144,-7.86061 14.1838,-15.31882 24.30385,-17.66671 8.38754,-1.88747 17.46471,0.0675 24.52567,4.87793 3.68547,2.56482 5.84853,6.63217 8.01958,10.38178 1.7379,0.79143 3.71259,-1.03528 5.62649,-1.02073 10.02379,-1.71191 20.86889,-2.10009 30.21763,2.67787 2.81947,1.10676 4.78168,3.50387 7.26005,5.07813 2.21006,0.46552 2.1503,-2.61341 2.58546,-4.02123 4.03537,-21.96086 6.22891,-44.17497 10.69352,-66.04577 5.02408,-27.11775 10.9983,-54.11009 14.46655,-81.49132 -0.86778,-1.88583 -3.50826,-2.05321 -5.13881,-3.14871 -8.69482,-3.75099 -17.878,-6.72012 -27.32976,-7.68196 -4.55664,-0.25415 -9.12496,-0.1763 -13.68656,-0.19053 z m 4.29757,17.16029 c 2.02166,0.0593 3.03766,2.36665 2.1443,4.0611 -3.65582,13.10609 -7.37016,26.21401 -9.84303,39.60944 -3.57818,17.34619 -4.98721,35.01901 -6.37793,52.64419 -0.68797,6.1412 -0.68368,12.38143 -1.7297,18.47113 -0.87645,2.19113 -5.08941,1.28592 -4.72517,-1.23187 0.44424,-12.54754 1.93636,-25.12242 2.85137,-37.64142 2.16202,-24.12656 7.27337,-48.09636 14.29387,-71.3245 0.77092,-1.62495 0.82475,-4.79351 3.38629,-4.58807 z"
         style="opacity:1;fill:#d5c00a;fill-opacity:1;stroke:none;stroke-width:2;stroke-linecap:round;stroke-linejoin:round;stroke-miterlimit:4;stroke-dasharray:none;stroke-dashoffset:0;stroke-opacity:1" />
      <path
         inkscape:connector-curvature="0"
         id="path4204"
         d="m 214.70702,493.88019 c -3.30222,1.07408 -6.92318,2.67934 -9.06178,5.49566 -4.26136,22.57176 -7.84778,45.28659 -11.11717,68.02588 -2.69469,23.93209 -3.09774,48.05515 -3.03483,72.117 1.36456,2.73364 3.1596,-1.11299 4.24975,-2.36656 2.54194,-3.49006 6.19583,-6.17868 8.5202,-9.72173 -3.7544,-12.33599 -4.51489,-25.2727 -4.46443,-38.11451 0.14527,-15.93607 2.88947,-31.67742 5.16601,-47.42859 2.18113,-14.6046 5.33621,-28.86971 10.0382,-42.82322 0.11383,-1.51819 2.83788,-5.11426 -0.29595,-5.18393 z"
         style="opacity:1;fill:#a39200;fill-opacity:1;stroke:none;stroke-width:2;stroke-linecap:round;stroke-linejoin:round;stroke-miterlimit:4;stroke-dasharray:none;stroke-dashoffset:0;stroke-opacity:1" />
      <path
         inkscape:connector-curvature="0"
         id="path4188"
         d="m 225.65141,624.16202 c -9.49812,0.16033 -17.27725,6.85242 -23.26799,13.59793 -4.67256,5.41068 -8.80768,11.81995 -9.56822,19.06878 2.54141,9.66906 6.69492,18.78237 11.2766,27.63368 2.26254,4.34033 4.43969,8.80994 7.06168,12.90475 1.75638,0.79564 3.58728,-1.22251 5.45845,-1.40478 10.70365,-2.16402 21.81031,-0.50813 32.28614,1.75388 3.66882,1.08673 7.88904,1.75813 10.76841,4.54774 2.01082,0.40747 3.22301,-2.02287 4.7434,-2.99051 13.12688,-11.38919 23.82602,-25.99941 28.98098,-42.7163 0.5739,-2.34237 1.87619,-4.61067 1.88807,-7.0178 -3.50452,-3.73659 -6.91076,-8.03095 -12.02289,-9.59371 -6.77893,-2.76672 -14.34834,-2.07284 -21.45647,-1.35216 -3.21402,0.24057 -6.06885,1.76501 -9.05762,2.75251 -3.00908,0.009 -4.53805,-2.81115 -5.635,-5.16532 -2.16447,-4.49868 -5.6828,-8.57084 -10.59756,-10.06696 -3.46043,-1.30188 -7.15676,-2.00389 -10.85798,-1.95173 z"
         style="opacity:1;fill:#e9b96e;fill-opacity:1;stroke:none;stroke-width:2;stroke-linecap:round;stroke-linejoin:round;stroke-miterlimit:4;stroke-dasharray:none;stroke-dashoffset:0;stroke-opacity:1" />
      <path
         inkscape:connector-curvature="0"
         id="path4214"
         d="m 214.23055,627.69482 c -8.88904,5.19947 -15.92926,13.65695 -19.8706,23.15459 -1.83817,3.89895 -1.12113,8.17998 0.38867,12.04192 4.14315,11.59172 9.45702,22.82963 15.87241,33.32714 1.77251,2.49205 4.80443,-0.16599 7.02273,-0.65896 3.31267,-0.94564 0.92249,-4.81513 0.84727,-7.10761 -3.72394,-19.48464 -5.40202,-39.77012 -2.71763,-59.44507 -0.0433,-0.76783 -0.72174,-1.49976 -1.54285,-1.31201 z"
         style="opacity:1;fill:#e2a442;fill-opacity:1;stroke:none;stroke-width:2;stroke-linecap:round;stroke-linejoin:round;stroke-miterlimit:4;stroke-dasharray:none;stroke-dashoffset:0;stroke-opacity:1" />
      <path
         inkscape:connector-curvature="0"
         d="m 220.94038,721.92478 c -0.77377,-0.69127 -1.4442,-1.49089 -2.12042,-2.27587 -1.23769,-1.42268 -2.38628,-2.92059 -3.49345,-4.44613 -1.52809,-2.09809 -3.00513,-4.23239 -4.45546,-6.38474 -1.62291,-2.41477 -3.16458,-4.8821 -4.66397,-7.37498 -1.50507,-2.48309 -2.90545,-5.02611 -4.29905,-7.57264 -1.38209,-2.53769 -2.68983,-5.116 -3.97936,-7.70177 -1.19847,-2.37917 -2.40577,-4.75378 -3.55955,-7.15508 -1.04698,-2.18347 -2.01233,-4.40223 -2.94369,-6.63683 -0.89053,-2.06799 -1.61066,-4.20059 -2.32255,-6.33456 -0.66005,-1.96308 -1.23257,-3.95362 -1.77645,-5.95148 -0.48128,-1.7265 -0.8832,-3.47265 -1.23587,-5.22944 -0.37371,-2.16232 -0.5239,-4.35443 -0.66575,-6.54161 -0.19047,-3.25866 -0.18966,-6.5254 -0.21736,-9.78856 -0.0606,-4.62709 -0.0287,-9.25398 0.0182,-13.88097 0.052,-5.31514 0.19887,-10.62885 0.31261,-15.94293 0.0556,-5.56057 0.26295,-11.11537 0.55512,-16.66791 0.30213,-5.32657 0.73464,-10.64416 1.16273,-15.96168 0.46339,-5.61285 1.21597,-11.19442 2.00085,-16.76948 0.77054,-5.36066 1.7054,-10.69558 2.55707,-16.0436 0.77725,-4.72162 1.49346,-9.4529 2.21528,-14.18321 0.64679,-4.21437 1.35697,-8.41825 2.09237,-12.6179 0.61488,-3.60585 1.22663,-7.21233 1.87591,-10.81218 0.56026,-3.02537 1.06381,-6.06054 1.63155,-9.08451 0.46683,-2.37573 0.86818,-4.76352 1.31068,-7.14367 0.38178,-2.17793 0.82321,-4.34405 1.27877,-6.50749 0.46291,-2.2456 1.03461,-4.46561 1.57531,-6.69308 0.55982,-2.27789 1.19096,-4.53733 1.80899,-6.79987 0.50329,-1.94308 1.06472,-3.8702 1.57927,-5.81023 0.47283,-1.80162 1.00698,-3.58639 1.57076,-5.36142 0.53226,-1.81892 1.18662,-3.596 1.91882,-5.34287 0.68547,-1.6692 1.45903,-3.29882 2.22741,-4.93068 0.6482,-1.38701 1.26209,-2.78949 1.92917,-4.16764 0.60938,-1.29961 1.22375,-2.59634 1.84794,-3.88898 0.57081,-1.18958 1.10866,-2.39416 1.65365,-3.59561 0.55455,-1.16135 1.03207,-2.35639 1.53658,-3.53957 0.47827,-1.10766 0.95452,-2.21533 1.38387,-3.34308 0.43192,-1.16603 0.89205,-2.32155 1.37259,-3.46836 0.45459,-1.12567 0.95119,-2.2336 1.40634,-3.35901 0.38334,-1.01185 0.77498,-2.0196 1.18177,-3.02237 0.3444,-0.86534 0.67147,-1.73716 1.01107,-2.60455 0.37613,-0.91808 0.84046,-1.79457 1.32066,-2.66129 0.55519,-1.04784 1.34537,-1.9281 2.17716,-2.76084 0.87853,-0.91764 1.8634,-1.70897 2.9083,-2.42678 1.54946,-1.00026 3.2473,-1.72332 4.94154,-2.43532 2.18492,-0.9042 4.43591,-1.62947 6.69645,-2.31673 2.50346,-0.74676 5.05612,-1.30916 7.60446,-1.87735 2.56837,-0.54664 5.1475,-1.04338 7.73027,-1.51714 2.66917,-0.48676 5.35746,-0.85494 8.04954,-1.18738 2.70008,-0.33396 5.41814,-0.49014 8.13301,-0.64775 2.49628,-0.16692 4.99553,-0.23976 7.49666,-0.26984 2.25093,-0.0515 4.50114,0.0195 6.75079,0.0873 2.00465,0.0597 4.00825,0.18653 6.00603,0.36204 1.9377,0.18256 3.86556,0.45577 5.7912,0.73547 2.12495,0.31773 4.23532,0.71899 6.34043,1.1467 2.02328,0.39411 4.03031,0.86597 6.02344,1.39056 1.75944,0.48249 3.53475,0.90178 5.29403,1.38458 1.45144,0.37376 2.88684,0.80012 4.31651,1.2489 1.18013,0.38056 2.35543,0.78185 3.51355,1.22531 0.98643,0.35531 1.92925,0.81325 2.88228,1.24693 0.85676,0.40672 1.67483,0.88442 2.47636,1.38936 0.76145,0.48923 1.45468,1.06747 2.11653,1.68207 0.5616,0.5164 1.05499,1.10116 1.51865,1.70525 0.5363,0.70382 0.91473,1.49915 1.22743,2.32187 0.29549,0.8004 0.43894,1.64259 0.64097,2.46794 0.24612,0.96514 0.42904,1.94405 0.59042,2.92636 0.17051,1.08961 0.29922,2.18509 0.41271,3.28192 0.1181,1.17558 0.20098,2.35427 0.27245,3.53348 0.0761,1.30575 0.12874,2.61269 0.17933,3.91963 0.0497,1.28718 0.0866,2.57478 0.11989,3.86247 0.0321,1.26507 0.0572,2.5303 0.0805,3.79556 0.0524,1.23819 -0.0104,2.47539 -0.0736,3.71172 -0.0577,1.09527 -0.10622,2.19097 -0.15094,3.28684 -0.0339,1.11175 -0.16985,2.21723 -0.27956,3.3233 -0.0936,1.00991 -0.17568,2.01921 -0.32535,3.02268 -0.14202,0.84051 -0.26354,1.68439 -0.41457,2.52331 -0.19976,1.02793 -0.44377,2.04826 -0.70531,3.06223 -0.26376,1.00339 -0.5449,2.00139 -0.83106,2.99856 -0.26726,0.92748 -0.46463,1.87257 -0.70755,2.80617 -0.23401,0.84743 -0.46319,1.69624 -0.66885,2.55106 -0.17098,0.81292 -0.38156,1.61434 -0.61062,2.41254 -0.20664,0.69201 -0.35399,1.39898 -0.54617,2.09473 -0.21727,0.68087 -0.39354,1.37341 -0.592,2.05963 -0.24612,0.94379 -0.50736,1.88361 -0.75761,2.82632 -0.42938,1.48103 -0.83655,2.96777 -1.21982,4.46146 -0.44211,1.85413 -0.84664,3.71715 -1.19235,5.5917 -0.45713,2.26249 -0.79616,4.5454 -1.15872,6.8241 -0.37583,2.41486 -0.78324,4.82455 -1.14176,7.24209 -0.41552,2.57316 -0.77254,5.15504 -1.14461,7.73469 -0.36519,2.77901 -0.8214,5.54388 -1.29866,8.30537 -0.53372,2.8902 -1.06474,5.7809 -1.60337,8.67018 -0.55616,3.04248 -1.1239,6.08286 -1.69818,9.12198 -0.57949,3.23061 -1.17586,6.45781 -1.80708,9.67877 -0.63757,3.35801 -1.34294,6.70259 -2.01803,10.05316 -0.73596,3.50425 -1.3618,7.0301 -2.02944,10.54766 -0.64636,3.49607 -1.35103,6.98098 -2.00267,10.476 -0.63711,3.36701 -1.26532,6.73589 -1.86623,10.10957 -0.55766,3.17823 -1.10189,6.35824 -1.59342,9.54742 -0.44924,2.94544 -0.88335,5.89343 -1.34438,8.83706 -0.44318,2.6704 -0.79904,5.35375 -1.18441,8.03271 -0.38372,2.49859 -0.68313,5.00891 -1.03583,7.51176 -0.32261,2.12652 -0.63258,4.25465 -0.90473,6.38823 -0.29019,2.10432 -0.59721,4.20588 -0.96172,6.29869 -0.34924,2.09087 -0.75684,4.1702 -1.20295,6.24232 -0.3973,1.92444 -0.824,3.84261 -1.20763,5.76988 -0.44137,2.11657 -0.92612,4.22435 -1.43513,6.32565 -0.53849,2.17707 -1.16452,4.33025 -1.80816,6.47804 -0.63157,2.01401 -1.27916,4.02307 -1.95755,6.02182 -0.75017,2.21028 -1.63103,4.3724 -2.54611,6.51855 -0.96134,2.30657 -2.15079,4.50732 -3.35324,6.69458 -1.17661,2.11238 -2.44089,4.17421 -3.76138,6.19922 -1.18002,1.7941 -2.40604,3.55667 -3.63359,5.3183 -1.12077,1.5954 -2.27725,3.16327 -3.4926,4.68787 -1.40154,1.72779 -2.91661,3.36068 -4.455,4.96649 -1.6404,1.71965 -3.38848,3.33019 -5.13808,4.93677 -1.48684,1.36212 -3.00544,2.68876 -4.49032,4.05307 -1.42705,1.32752 -2.85689,2.65193 -4.29518,3.9673 -1.55479,1.36983 -3.12138,2.72702 -4.70644,4.06189 -1.31194,1.08122 -2.62645,2.16157 -3.9746,3.19761 -1.16473,0.91362 -2.34376,1.80883 -3.53073,2.6933 -1.22366,0.88129 -2.45947,1.74565 -3.70151,2.60083 -1.02069,0.74061 -2.08224,1.42239 -3.11464,2.14568 -0.85494,0.60257 -1.74093,1.15844 -2.6009,1.75335 -0.74207,0.51845 -1.52653,0.97151 -2.28637,1.46189 -0.65308,0.44804 -1.32625,0.86468 -2.01702,1.25175 -0.7271,0.42045 -1.49142,0.75044 -2.29347,0.99713 -0.74782,0.23089 -1.51284,0.3719 -2.29276,0.42779 -0.6937,0.0413 -1.38491,0.0253 -2.07451,-0.0601 -0.64052,-0.0735 -1.26557,-0.21956 -1.88574,-0.39181 -0.57878,-0.14258 -1.14152,-0.33406 -1.69628,-0.55082 -0.60726,-0.19596 -1.17802,-0.48313 -1.74005,-0.78111 -0.6261,-0.34981 -1.21027,-0.76517 -1.77122,-1.21011 -0.50522,-0.41857 -0.95721,-0.89368 -1.39637,-1.3794 -0.4408,-0.48225 -0.80878,-1.02165 -1.16535,-1.56714 -0.0306,-0.0442 -0.0611,-0.0883 -0.0917,-0.13252 -2.85178,-4.16864 3.04356,-8.20167 5.89534,-4.03303 l 0,0 c 0.0591,0.0869 0.11816,0.1737 0.17724,0.26055 0.16432,0.25206 0.3181,0.50906 0.52514,0.72903 0.21997,0.26969 0.34059,0.36502 0.59821,0.61019 0.18184,0.14081 0.44644,0.33452 0.68143,0.46952 0.34879,0.17528 0.48085,0.25832 0.89592,0.38455 0.32696,0.1291 0.65457,0.24007 0.99956,0.31807 0.34832,0.0968 0.48339,0.14701 0.90279,0.19184 0.23517,0.0375 0.47618,0.0143 0.71432,0.0124 0.22558,-0.0179 0.44568,-0.0809 0.66477,-0.13755 0.31493,-0.0889 0.601,-0.24232 0.89241,-0.40629 0.56749,-0.30593 1.10035,-0.67008 1.63717,-1.02578 0.68986,-0.43677 1.3913,-0.85552 2.0663,-1.31577 0.8524,-0.5883 1.7274,-1.14235 2.57616,-1.73618 1.0469,-0.72722 2.11491,-1.42387 3.1492,-2.16963 1.16869,-0.80447 2.33108,-1.6181 3.48399,-2.44499 1.16067,-0.86485 2.31343,-1.74036 3.45218,-2.63393 1.26416,-0.96676 2.49016,-1.98388 3.72027,-2.99319 1.51074,-1.27193 3.00319,-2.56581 4.48678,-3.86911 1.43441,-1.31176 2.86026,-2.63268 4.28347,-3.95657 1.48552,-1.36434 3.00323,-2.69268 4.4914,-4.05407 1.63816,-1.50416 3.27744,-3.00942 4.81362,-4.61925 1.39073,-1.44875 2.75961,-2.92306 4.02912,-4.48008 1.12125,-1.40098 2.18019,-2.84769 3.21377,-4.31437 1.18621,-1.70206 2.37141,-3.40468 3.51195,-5.13796 1.22384,-1.87397 2.39343,-3.78341 3.4846,-5.73802 1.08895,-1.97885 2.172,-3.96748 3.04184,-6.05489 0.8449,-1.97971 1.6598,-3.9736 2.3526,-6.01255 0.65126,-1.917 1.27128,-3.84444 1.87891,-5.77568 0.60727,-2.0263 1.19972,-4.05713 1.70869,-6.11085 0.4869,-2.00554 0.94823,-4.01785 1.37158,-6.03776 0.39134,-1.9633 0.82473,-3.91769 1.23006,-5.8781 0.4266,-1.98069 0.81631,-3.9682 1.14931,-5.96702 0.34737,-1.98492 0.63525,-3.9789 0.91278,-5.97468 0.27648,-2.16491 0.58927,-4.3246 0.91737,-6.48227 0.35483,-2.50909 0.65267,-5.02618 1.03857,-7.531 0.39006,-2.7084 0.74955,-5.42135 1.19771,-8.12114 0.46079,-2.93761 0.89289,-5.87987 1.34162,-8.81933 0.50024,-3.24407 1.05325,-6.47896 1.62075,-9.71188 0.60451,-3.39261 1.23578,-6.78051 1.87659,-10.16643 0.65345,-3.50245 1.35868,-6.99502 2.00691,-10.4985 0.67281,-3.54381 1.3033,-7.09602 2.04485,-10.62644 0.67269,-3.33826 1.37542,-6.67059 2.01069,-10.01626 0.62843,-3.20504 1.22081,-6.41652 1.79791,-9.63113 0.5733,-3.03342 1.13986,-6.06814 1.69498,-9.10493 0.5331,-2.85832 1.0577,-5.71822 1.58669,-8.57732 0.46596,-2.69605 0.91181,-5.3953 1.26747,-8.10859 0.37347,-2.58926 0.73179,-5.18077 1.14883,-7.76352 0.36266,-2.44226 0.77291,-4.87686 1.15319,-7.31638 0.37223,-2.33757 0.72091,-4.67937 1.18906,-7.00049 0.37734,-2.0346 0.81325,-4.05784 1.2978,-6.06963 0.38905,-1.51308 0.79846,-3.02034 1.23521,-4.52031 0.26658,-1.0006 0.54071,-1.99922 0.80618,-3.0001 0.20153,-0.6701 0.36129,-1.35284 0.57999,-2.01817 0.22192,-0.68583 0.30889,-1.41422 0.54682,-2.09699 0.20127,-0.70114 0.38529,-1.404 0.53307,-2.11898 0.21903,-0.90402 0.4572,-1.80316 0.70635,-2.69933 0.2659,-0.97931 0.45285,-1.97989 0.74777,-2.95207 0.27005,-0.94016 0.53621,-1.88074 0.78413,-2.82706 0.2226,-0.84332 0.41974,-1.69531 0.59188,-2.55015 0.14421,-0.76396 0.24102,-1.53644 0.37757,-2.30188 0.13556,-0.88281 0.18911,-1.77361 0.28025,-2.66183 0.0961,-0.96839 0.21926,-1.93615 0.25059,-2.90932 0.0457,-1.12042 0.0954,-2.24067 0.15434,-3.36048 0.0548,-1.07112 0.11618,-2.14251 0.0655,-3.21532 -0.023,-1.24761 -0.0476,-2.4952 -0.0793,-3.74263 -0.0324,-1.25706 -0.0685,-2.51406 -0.11693,-3.77063 -0.0486,-1.25532 -0.0989,-2.51064 -0.17166,-3.76484 -0.065,-1.0783 -0.14045,-2.15612 -0.24771,-3.23115 -0.0985,-0.95661 -0.21012,-1.91205 -0.35684,-2.86261 -0.13229,-0.81386 -0.28372,-1.62462 -0.48956,-2.42357 -0.1296,-0.55238 -0.23441,-1.11102 -0.39561,-1.65559 -0.0578,-0.18337 -0.12704,-0.3607 -0.24619,-0.51395 -0.20603,-0.26192 -0.41471,-0.52905 -0.664,-0.75301 -0.33417,-0.31227 -0.67339,-0.61437 -1.05702,-0.86662 -0.52938,-0.33357 -1.06503,-0.65509 -1.6276,-0.93155 -0.82734,-0.37661 -1.64279,-0.78041 -2.50028,-1.08628 -1.01013,-0.39711 -2.04601,-0.73177 -3.07618,-1.07225 -1.34754,-0.42311 -2.70013,-0.82522 -4.0687,-1.176 -1.73589,-0.47715 -3.48867,-0.8878 -5.22443,-1.36584 -1.86023,-0.49208 -3.735,-0.9289 -5.62382,-1.29732 -1.97387,-0.40119 -3.95232,-0.77917 -5.94475,-1.07782 -1.79424,-0.26063 -3.59029,-0.51722 -5.39558,-0.68922 -1.85904,-0.1668 -3.7245,-0.27958 -5.59004,-0.33734 -2.14946,-0.0648 -4.29939,-0.13513 -6.45008,-0.0846 -2.39168,0.0285 -4.78144,0.0975 -7.16845,0.25836 -2.56083,0.14849 -5.12502,0.29256 -7.67207,0.60599 -2.55376,0.31482 -5.10404,0.66294 -7.63613,1.12403 -2.49391,0.45699 -4.98413,0.93714 -7.46443,1.46317 -2.37296,0.52873 -4.75074,1.04906 -7.083,1.74027 -2.02708,0.61473 -4.04647,1.26095 -6.00681,2.068 -1.26129,0.52896 -2.5312,1.04972 -3.70222,1.7642 -0.68506,0.45043 -1.30328,0.98035 -1.87147,1.57224 -0.3607,0.35661 -0.73639,0.70683 -0.97134,1.16395 -0.32713,0.58958 -0.6494,1.18199 -0.91643,1.80198 -0.35021,0.89447 -0.68776,1.7933 -1.04335,2.68554 -0.40654,1.00215 -0.79617,2.00963 -1.18093,3.0203 -0.46786,1.15229 -0.97257,2.28891 -1.44028,3.44128 -0.45209,1.07403 -0.88009,2.15829 -1.28542,3.25082 -0.46435,1.2134 -0.97123,2.40855 -1.48791,3.60043 -0.52687,1.23171 -1.02328,2.47684 -1.60118,3.68629 -0.56888,1.25291 -1.13013,2.50919 -1.72583,3.74976 -0.62595,1.29628 -1.24177,2.5967 -1.8532,3.89984 -0.65743,1.35258 -1.25339,2.73352 -1.89399,4.09405 -0.72586,1.54108 -1.45851,3.07914 -2.10504,4.65598 -0.65324,1.54773 -1.22554,3.1264 -1.69661,4.73976 -0.53042,1.66421 -1.0294,3.33873 -1.47359,5.02816 -0.51953,1.95657 -1.08437,3.90062 -1.59273,5.86022 -0.60017,2.19715 -1.2136,4.39113 -1.75819,6.60293 -0.52367,2.15655 -1.07865,4.30554 -1.52695,6.47967 -0.44404,2.1087 -0.87475,4.21988 -1.24613,6.34286 -0.44433,2.38362 -0.84426,4.77553 -1.31275,7.15477 -0.56484,3.00724 -1.06449,6.02588 -1.62233,9.03444 -0.64749,3.58773 -1.25619,7.18231 -1.86948,10.776 -0.7264,4.14823 -1.42818,8.30058 -2.06705,12.46335 -0.72417,4.74563 -1.44274,9.49222 -2.22244,14.22914 -0.84503,5.30559 -1.77198,10.59826 -2.53795,15.91615 -0.76541,5.4346 -1.50125,10.87529 -1.95411,16.34669 -0.42279,5.25168 -0.85046,10.50338 -1.14956,15.76396 -0.28846,5.47838 -0.49264,10.95896 -0.54689,16.4453 -0.11317,5.28727 -0.25939,10.57417 -0.31134,15.86249 -0.0465,4.58266 -0.0785,9.1652 -0.0181,13.74797 0.0265,3.12959 0.024,6.2627 0.20272,9.38813 0.12067,1.87119 0.24487,3.74616 0.54147,5.59944 0.31957,1.59858 0.6863,3.18691 1.12455,4.75757 0.50797,1.86854 1.04266,3.73029 1.65985,5.56616 0.65695,1.96928 1.31596,3.93929 2.13989,5.84697 0.88304,2.11864 1.79642,4.22295 2.7896,6.29295 1.13731,2.37016 2.33191,4.71179 3.51314,7.06022 1.24801,2.50463 2.51521,5.00133 3.85272,7.45947 1.34706,2.46159 2.69922,4.92057 4.15441,7.32064 1.43578,2.38816 2.91234,4.75167 4.46652,7.06499 1.4048,2.08554 2.83606,4.15318 4.31655,6.18591 0.98659,1.36553 2.0155,2.70297 3.12095,3.97488 0.56059,0.65118 1.10927,1.31995 1.75873,1.88619 3.57143,3.57143 -1.47934,8.62219 -5.05077,5.05076 z"
         id="path4138"
         style="opacity:1;fill:#000000;fill-opacity:1;stroke:none;stroke-width:2;stroke-linecap:round;stroke-linejoin:round;stroke-miterlimit:4;stroke-dasharray:none;stroke-dashoffset:0;stroke-opacity:1" />
      <path
         inkscape:connector-curvature="0"
         d="m 216.85455,446.78893 c 0.82897,-0.28007 1.69708,-0.40039 2.55441,-0.55655 1.36983,-0.24446 2.74731,-0.44732 4.12619,-0.63376 2.29617,-0.31177 4.59159,-0.62907 6.88791,-0.93978 2.97912,-0.3957 5.95843,-0.78576 8.94491,-1.1223 3.26488,-0.33091 6.52297,-0.72324 9.78453,-1.08439 3.67064,-0.42365 7.33839,-0.87029 11.01263,-1.26207 3.87339,-0.40365 7.75521,-0.71844 11.63825,-1.01196 3.49708,-0.25312 6.99472,-0.50566 10.49747,-0.66557 3.07779,-0.12384 6.15659,-0.20364 9.23685,-0.20597 2.71673,-0.007 5.43206,0.1017 8.14296,0.27108 2.30184,0.13188 4.5985,0.32706 6.89543,0.52357 2.28969,0.19603 4.57819,0.41876 6.8598,0.69414 1.95692,0.23207 3.90529,0.52217 5.85078,0.83414 1.60758,0.24378 3.19893,0.58136 4.7948,0.89021 1.26542,0.27402 2.52023,0.59405 3.78194,0.88432 1.25093,0.27 2.44972,0.71103 3.64739,1.152 1.02172,0.35301 2.02726,0.7479 3.01645,1.1836 0.60686,0.29185 0.28267,0.12185 0.96566,0.52301 4.25975,2.7138 0.42185,8.738 -3.8379,6.02419 l 0,0 c 0.21835,0.1013 0.21005,0.0994 -0.0199,-0.016 -0.84796,-0.37849 -1.71552,-0.70704 -2.59244,-1.01186 -0.91517,-0.337 -1.82502,-0.69121 -2.78243,-0.89427 -1.18006,-0.27205 -2.35481,-0.56671 -3.53635,-0.83228 -1.52059,-0.29444 -3.03669,-0.61738 -4.56836,-0.85015 -1.85521,-0.29757 -3.71294,-0.57517 -5.57915,-0.79591 -2.19794,-0.26768 -4.40342,-0.4778 -6.60924,-0.66825 -2.24282,-0.19191 -4.48526,-0.38337 -6.73292,-0.51152 -2.56068,-0.16072 -5.12559,-0.26383 -7.69182,-0.25712 -2.9738,0.002 -5.94613,0.08 -8.91759,0.19861 -3.43133,0.15491 -6.85739,0.40641 -10.28318,0.65262 -3.81002,0.28789 -7.61886,0.59639 -11.41945,0.99203 -3.66464,0.39049 -7.32265,0.83706 -10.98375,1.25893 -3.25708,0.36051 -6.51065,0.75263 -9.77105,1.08289 -2.93373,0.33026 -5.86026,0.71427 -8.78676,1.1027 -2.29748,0.31076 -4.59403,0.62829 -6.89134,0.94024 -1.27317,0.17101 -2.54483,0.35875 -3.80958,0.58382 -0.52304,0.094 -1.05369,0.1611 -1.56642,0.30396 -4.79157,1.59719 -7.05034,-5.17912 -2.25877,-6.77631 z"
         id="path4142"
         style="opacity:1;fill:#000000;fill-opacity:1;stroke:none;stroke-width:2;stroke-linecap:round;stroke-linejoin:round;stroke-miterlimit:4;stroke-dasharray:none;stroke-dashoffset:0;stroke-opacity:1" />
      <path
         inkscape:connector-curvature="0"
         d="m 203.98246,492.09347 c 0.63088,-0.37397 1.26649,-0.74004 1.89381,-1.12009 1.28441,-0.74109 2.62275,-1.38142 3.95563,-2.02902 1.94128,-0.97795 3.94273,-1.82986 5.93097,-2.70642 2.43752,-1.04031 4.89331,-2.03657 7.37174,-2.97512 2.85059,-1.12542 5.76007,-2.08519 8.68795,-2.98633 3.04791,-0.92835 6.1317,-1.72491 9.21988,-2.50523 3.12071,-0.79976 6.28211,-1.42385 9.4448,-2.03061 3.28434,-0.59627 6.57518,-1.15764 9.87284,-1.67534 3.29207,-0.52491 6.6006,-0.92181 9.92105,-1.2111 3.32658,-0.30565 6.667,-0.36406 10.00507,-0.39837 2.95478,-0.0101 5.90807,0.11352 8.8559,0.30701 2.54695,0.14824 5.07497,0.4814 7.5932,0.87848 2.31625,0.37235 4.60243,0.89659 6.87875,1.45852 2.16876,0.57493 4.3179,1.22206 6.45478,1.90528 1.67631,0.51634 3.32135,1.12443 4.97423,1.70938 1.34046,0.45995 2.65635,0.98673 3.95897,1.54373 1.01692,0.44199 2.04272,0.86216 3.04714,1.33208 0.8771,0.40283 1.73729,0.84041 2.58173,1.30761 0.75221,0.42298 1.48823,0.87475 2.23064,1.31491 0.12824,0.0808 0.25649,0.16162 0.38474,0.24243 4.26316,2.70845 0.43283,8.73746 -3.83033,6.02901 l 0,0 c -0.0657,-0.0424 -0.13147,-0.0849 -0.1972,-0.12729 -0.69069,-0.40951 -1.37469,-0.83106 -2.07423,-1.22483 -0.69044,-0.39414 -1.40852,-0.73712 -2.12779,-1.07464 -0.92945,-0.43705 -1.88294,-0.8188 -2.82327,-1.23176 -1.16279,-0.49732 -2.33675,-0.96928 -3.53413,-1.37788 -1.58389,-0.5609 -3.15991,-1.14496 -4.76649,-1.63941 -1.9842,-0.63487 -3.97977,-1.23585 -5.99243,-1.77437 -2.07786,-0.51412 -4.16428,-0.99556 -6.2786,-1.33724 -2.30508,-0.36412 -4.61859,-0.67302 -6.95035,-0.80667 -2.76671,-0.18389 -5.53884,-0.29806 -8.31214,-0.29187 -3.15605,0.0322 -6.31455,0.0826 -9.45979,0.37193 -3.15697,0.2736 -6.30215,0.65284 -9.43206,1.15156 -3.21822,0.50485 -6.42961,1.05326 -9.63499,1.63388 -3.02708,0.58022 -6.0533,1.17558 -9.04018,1.94077 -2.9709,0.75068 -5.9381,1.51475 -8.87041,2.40742 -2.78378,0.85512 -5.54931,1.76794 -8.25861,2.83923 -2.35986,0.89287 -4.69738,1.84242 -7.01894,2.8307 -1.90757,0.84099 -3.82894,1.65616 -5.69104,2.59529 -1.13679,0.55227 -2.27853,1.09673 -3.38077,1.7164 -0.63498,0.38344 -1.2769,0.75503 -1.9151,1.13292 -4.33099,2.5986 -8.00596,-3.52635 -3.67497,-6.12495 z"
         id="path4144"
         style="opacity:1;fill:#000000;fill-opacity:1;stroke:none;stroke-width:2;stroke-linecap:round;stroke-linejoin:round;stroke-miterlimit:4;stroke-dasharray:none;stroke-dashoffset:0;stroke-opacity:1" />
      <path
         inkscape:connector-curvature="0"
         d="m 187.14286,653.66398 c 0.0333,-1.02996 0.21788,-2.03834 0.47554,-3.03338 0.40391,-1.34147 0.90757,-2.65032 1.46871,-3.93318 0.68862,-1.54453 1.48232,-3.03823 2.31853,-4.50698 0.92944,-1.69649 2.00559,-3.3003 3.13326,-4.86938 1.27949,-1.73968 2.68266,-3.37931 4.13085,-4.97914 1.45714,-1.57049 2.97899,-3.07835 4.54881,-4.53563 1.5412,-1.44115 3.23199,-2.69881 4.96676,-3.89378 1.77796,-1.20647 3.66231,-2.24103 5.58151,-3.20211 1.96163,-0.93327 4.03076,-1.59432 6.12803,-2.14134 1.98536,-0.49317 4.01576,-0.72161 6.05623,-0.78741 2.12828,-0.01 4.24265,0.25864 6.33464,0.62629 2.09203,0.40673 4.13704,1.02376 6.14669,1.72653 1.77841,0.59969 3.46593,1.41521 5.09664,2.33702 1.49398,0.85565 2.79896,1.95969 3.97993,3.20299 0.96699,1.0346 1.80499,2.17711 2.64177,3.31653 0.80244,1.07884 1.44618,2.25962 2.08597,3.43833 0.53992,0.97083 1.04885,1.9583 1.52471,2.962 0.27492,0.59993 0.14143,0.30587 0.40072,0.88209 2.07183,4.60627 -4.44242,7.53628 -6.51425,2.93001 l 0,0 c -0.22839,-0.50802 -0.11319,-0.25383 -0.34563,-0.76256 -0.41513,-0.88446 -0.87027,-1.74929 -1.34326,-2.60408 -0.48516,-0.89383 -0.95942,-1.79795 -1.56563,-2.61813 -0.66724,-0.90878 -1.32704,-1.82684 -2.0932,-2.65657 -0.67648,-0.73734 -1.43661,-1.37573 -2.30388,-1.88254 -1.25448,-0.72069 -2.56009,-1.3442 -3.9335,-1.80674 -1.64229,-0.58166 -3.31718,-1.08432 -5.02561,-1.43198 -1.61239,-0.2899 -3.24189,-0.5019 -4.88264,-0.51923 -1.50455,0.0346 -2.99993,0.21269 -4.46588,0.5614 -1.61576,0.41646 -3.21092,0.91507 -4.72876,1.6168 -1.62472,0.80999 -3.22028,1.68179 -4.72689,2.69797 -1.45181,0.99673 -2.87008,2.04089 -4.15821,3.24656 -1.41951,1.31408 -2.79162,2.6779 -4.11105,4.09276 -1.26965,1.40077 -2.50214,2.83397 -3.6267,4.35549 -0.98281,1.36438 -1.9217,2.75757 -2.72667,4.23639 -0.71578,1.25261 -1.39407,2.5272 -1.98491,3.84421 -0.42039,0.94862 -0.7883,1.91886 -1.10763,2.90614 -0.0458,0.15766 -0.30368,1.44287 -0.23215,1.18465 0,5.05076 -7.14285,5.05076 -7.14285,0 z"
         id="path4146"
         style="opacity:1;fill:#000000;fill-opacity:1;stroke:none;stroke-width:2;stroke-linecap:round;stroke-linejoin:round;stroke-miterlimit:4;stroke-dasharray:none;stroke-dashoffset:0;stroke-opacity:1" />
      <path
         inkscape:connector-curvature="0"
         d="m 251.12532,635.6649 c 0.55818,-0.3942 1.13847,-0.75412 1.73044,-1.09487 1.13283,-0.63632 2.37393,-1.02678 3.62135,-1.3655 1.44383,-0.36756 2.91944,-0.58418 4.39346,-0.78774 1.5593,-0.20461 3.12507,-0.35373 4.69147,-0.49133 1.57567,-0.14395 3.15284,-0.24891 4.73476,-0.27904 1.61885,-0.0465 3.23608,0.0393 4.85244,0.11642 1.62478,0.0736 3.22158,0.38403 4.81362,0.69418 1.43658,0.29205 2.84267,0.70281 4.23223,1.16562 1.20543,0.41679 2.37854,0.91604 3.54241,1.43563 0.97764,0.43743 1.92961,0.93098 2.85183,1.47517 0.7736,0.44491 1.50343,0.95513 2.22305,1.48099 0.69118,0.51772 1.31411,1.11687 1.95849,1.68997 0.63401,0.57276 1.19608,1.2139 1.72739,1.88104 0.41257,0.45824 0.73521,0.99035 1.12724,1.46328 0.15785,0.21381 0.3129,0.43162 0.46725,0.64763 3.03647,4.03609 -2.67143,8.33031 -5.7079,4.29422 l 0,0 c -0.13781,-0.18642 -0.27545,-0.3721 -0.40409,-0.56494 -0.35608,-0.46757 -0.69184,-0.94954 -1.07485,-1.39653 -0.27489,-0.34707 -0.55542,-0.68672 -0.8822,-0.98759 -0.47446,-0.42204 -0.93375,-0.86117 -1.42703,-1.26094 -0.5341,-0.39067 -1.07136,-0.77537 -1.64859,-1.10207 -0.68487,-0.40829 -1.39621,-0.77143 -2.12343,-1.09828 -0.95094,-0.42491 -1.90744,-0.83712 -2.89097,-1.18215 -1.09607,-0.36675 -2.20372,-0.69575 -3.33675,-0.93001 -1.25373,-0.24428 -2.50875,-0.5066 -3.7882,-0.57049 -1.45925,-0.0697 -2.91911,-0.15276 -4.38067,-0.1095 -1.41729,0.0249 -2.82974,0.12561 -4.2415,0.25289 -1.44926,0.12709 -2.89799,0.26421 -4.34088,0.45181 -1.17743,0.16187 -2.35701,0.32811 -3.51309,0.60941 -0.66313,0.17592 -1.3329,0.35817 -1.94461,0.67621 -0.54952,0.30522 -1.05971,0.67157 -1.5877,1.01146 -4.33099,2.5986 -8.00596,-3.52635 -3.67497,-6.12495 z"
         id="path4150"
         style="opacity:1;fill:#000000;fill-opacity:1;stroke:none;stroke-width:2;stroke-linecap:round;stroke-linejoin:round;stroke-miterlimit:4;stroke-dasharray:none;stroke-dashoffset:0;stroke-opacity:1" />
      <path
         inkscape:connector-curvature="0"
         d="m 209.30318,698.77457 c 0.60492,-0.53908 1.24465,-1.02882 1.91637,-1.48149 1.04482,-0.66187 2.16894,-1.17794 3.31469,-1.63657 1.32807,-0.52094 2.70564,-0.88779 4.10424,-1.1574 1.66986,-0.28098 3.35761,-0.40716 5.04792,-0.46944 1.84729,-0.0582 3.69442,-0.08 5.54209,-0.0378 1.94047,0.0314 3.87394,0.21071 5.79853,0.45006 1.87894,0.24834 3.75934,0.48208 5.634,0.76115 1.71323,0.2272 3.41236,0.54131 5.11362,0.84225 1.51846,0.27876 3.01939,0.63701 4.51864,1.00254 1.3614,0.33381 2.69028,0.77995 4.01684,1.22897 1.08992,0.40349 2.17175,0.82574 3.22349,1.32076 0.5909,0.28821 0.28823,0.13582 0.90728,0.45862 4.47194,2.34775 1.15173,8.67203 -3.32022,6.32429 l 0,0 c -0.40668,-0.21587 -0.19359,-0.10687 -0.64009,-0.32541 -0.80202,-0.38164 -1.63243,-0.69329 -2.46093,-1.0126 -1.12967,-0.38252 -2.2595,-0.76836 -3.41833,-1.05505 -1.35113,-0.32943 -2.70289,-0.65541 -4.07102,-0.90848 -1.63737,-0.2897 -3.27234,-0.59379 -4.92148,-0.81095 -1.82034,-0.27123 -3.64646,-0.4969 -5.4709,-0.73878 -1.68396,-0.21347 -3.37665,-0.3683 -5.07486,-0.39642 -1.70667,-0.0401 -3.41274,-0.0175 -5.11912,0.035 -1.34025,0.0471 -2.6777,0.14201 -4.00336,0.3544 -0.94686,0.162 -1.8702,0.43772 -2.76996,0.77274 -0.6896,0.27056 -1.36506,0.57306 -2.00356,0.95099 -0.50477,0.32159 -0.94254,0.72433 -1.40177,1.10618 -3.94398,3.15519 -8.40609,-2.42244 -4.46211,-5.57763 z"
         id="path4154"
         style="opacity:1;fill:#000000;fill-opacity:1;stroke:none;stroke-width:2;stroke-linecap:round;stroke-linejoin:round;stroke-miterlimit:4;stroke-dasharray:none;stroke-dashoffset:0;stroke-opacity:1" />
      <path
         inkscape:connector-curvature="0"
         d="m 260,609.35713 c -0.0203,-1.23367 0.0905,-2.46388 0.18652,-3.69244 0.24229,-2.78185 0.48426,-5.56364 0.72878,-8.34533 0.42224,-4.63652 0.81825,-9.27518 1.16279,-13.91814 0.40073,-5.71398 0.87256,-11.42158 1.43382,-17.12197 0.62199,-6.14735 1.57161,-12.25331 2.59415,-18.34461 0.90721,-5.29709 1.94259,-10.57041 3.01989,-15.83508 0.85422,-4.20244 1.84993,-8.37259 2.86853,-12.53744 0.87852,-3.46673 1.81259,-6.92004 2.79071,-10.36003 0.74765,-2.66874 1.54161,-5.32408 2.30764,-7.98752 0.30853,-1.07847 0.61329,-2.158 0.91825,-3.23748 1.37314,-4.86053 8.24695,-2.91862 6.87382,1.94191 l 0,0 c -0.30804,1.09036 -0.61588,2.18078 -0.92755,3.27011 -0.76426,2.65666 -1.55599,5.30534 -2.30185,7.9673 -0.95462,3.3544 -1.86438,6.72235 -2.72266,10.10264 -0.9971,4.07692 -1.9731,8.15871 -2.80905,12.2725 -1.06042,5.1819 -2.08013,10.37221 -2.9735,15.58595 -0.99625,5.93109 -1.92293,11.87625 -2.52992,17.86188 -0.556,5.64329 -1.02222,11.29382 -1.41902,16.95059 -0.34714,4.67525 -0.74535,9.34622 -1.17064,14.015 -0.24261,2.75873 -0.48259,5.51757 -0.72307,8.27646 -0.0816,1.04334 -0.18409,2.08795 -0.16478,3.1357 0,5.05077 -7.14286,5.05077 -7.14286,0 z"
         id="path4160"
         style="opacity:1;fill:#000000;fill-opacity:1;stroke:none;stroke-width:2;stroke-linecap:round;stroke-linejoin:round;stroke-miterlimit:4;stroke-dasharray:none;stroke-dashoffset:0;stroke-opacity:1" />
      <path
         inkscape:connector-curvature="0"
         id="path4190"
         d="m 226.95373,700.25437 c -3.85183,0.2439 -8.05926,-0.0235 -11.54995,1.8478 -1.27769,1.73527 1.20349,3.49273 1.86065,5.01114 2.61808,4.0626 5.93732,7.60916 8.73296,11.52555 0.41885,2.07539 1.8522,3.87494 4.03042,4.26758 4.06994,1.00055 7.29903,-2.59486 10.52667,-4.42514 5.00644,-3.61207 10.32217,-6.95925 14.68747,-11.34914 1.07343,-2.12148 -2.14994,-2.42701 -3.43052,-3.04896 -7.49453,-2.25485 -15.33071,-3.49775 -23.14728,-3.82595 -0.57007,-0.0108 -1.14031,-0.007 -1.71042,-0.003 z"
         style="opacity:1;fill:#000000;fill-opacity:1;stroke:none;stroke-width:2;stroke-linecap:round;stroke-linejoin:round;stroke-miterlimit:4;stroke-dasharray:none;stroke-dashoffset:0;stroke-opacity:1" />
    </g>
  </g>
</svg>
